<svg width="14" height="14" viewBox="0 0 14 14" fill="none" xmlns="http://www.w3.org/2000/svg">
<path d="M6.99419 1.16663C3.77419 1.16663 1.16669 3.77996 1.16669 6.99996C1.16669 10.22 3.77419 12.8333 6.99419 12.8333C10.22 12.8333 12.8334 10.22 12.8334 6.99996C12.8334 3.77996 10.22 1.16663 6.99419 1.16663ZM7.00002 11.6666C4.42169 11.6666 2.33335 9.57829 2.33335 6.99996C2.33335 4.42163 4.42169 2.33329 7.00002 2.33329C9.57835 2.33329 11.6667 4.42163 11.6667 6.99996C11.6667 9.57829 9.57835 11.6666 7.00002 11.6666Z" fill="#1C1C1C"/>
<path d="M7.29169 4.08337H6.41669V7.58337L9.47919 9.42087L9.91669 8.70337L7.29169 7.14587V4.08337Z" fill="#1C1C1C"/>
</svg>
