<svg width="265" height="92" viewBox="0 0 265 92" fill="none" xmlns="http://www.w3.org/2000/svg">
<path fill-rule="evenodd" clip-rule="evenodd" d="M46.44 58.0331C53.057 58.0331 56.593 54.4131 56.593 47.8431V32.5551H51.9021V47.4551C51.9021 52.6551 50.082 54.2721 46.475 54.2721C42.764 54.2721 41.293 52.3741 41.293 47.7711V32.5561H36.6021V48.1231C36.6021 54.5891 40.172 58.0331 46.44 58.0331" fill="#1C1C1C"/>
<mask id="mask0" mask-type="alpha" maskUnits="userSpaceOnUse" x="0" y="6" width="129" height="80">
<path d="M0 85.84H128.967V6H0V85.84Z" fill="white"/>
</mask>
<g mask="url(#mask0)">
<path fill-rule="evenodd" clip-rule="evenodd" d="M0.952 25.853H3.36V6H0.952V25.853ZM6.097 25.853H8.393V16.968C8.393 14.358 10.33 13.08 12.211 13.08C14.202 13.08 15.281 14.136 15.281 16.69V25.853H17.578V16.968C17.578 14.358 19.514 13.08 21.395 13.08C23.387 13.08 24.466 14.136 24.466 16.69V25.853H26.762V16.857C26.762 12.637 24.494 11.081 21.893 11.081C20.095 11.081 17.937 11.914 16.941 13.803C16.195 11.859 14.562 11.081 12.709 11.081C10.634 11.081 9.057 12.191 8.393 13.552V11.332H6.097V25.853V25.853ZM29.057 30.907H31.354V23.465C32.184 24.909 33.871 26.103 36.25 26.103C40.234 26.103 42.834 23.049 42.834 18.606V18.384C42.834 13.858 40.04 11.081 36.25 11.081C34.148 11.081 32.184 12.358 31.354 13.774V11.331H29.058V30.907H29.057ZM36.029 24.187C33.207 24.187 31.271 22.437 31.271 18.717V18.495C31.271 14.775 33.318 12.997 36.001 12.997C38.436 12.997 40.455 14.83 40.455 18.495V18.717C40.455 22.243 38.906 24.187 36.029 24.187ZM48.92 26.103C51.05 26.103 52.35 25.381 53.43 24.021V25.853H55.725V16.273C55.725 12.22 53.208 11.081 50.442 11.081C47.648 11.081 45.02 12.303 44.715 15.607H47.012C47.232 13.83 48.339 12.997 50.332 12.997C52.544 12.997 53.429 13.969 53.429 16.274V17.329H51.355C47.648 17.329 44.107 18.467 44.107 21.827C44.107 24.797 46.237 26.103 48.92 26.103V26.103ZM49.142 24.271C47.122 24.271 46.402 23.326 46.402 21.827C46.402 19.689 48.533 18.967 51.438 18.967H53.429V20.772C53.429 23.021 51.576 24.271 49.142 24.271ZM64.578 26.103C68.063 26.103 70.581 23.771 70.885 20.633H68.755C68.505 22.993 66.652 24.187 64.605 24.187C61.812 24.187 59.875 22.299 59.875 18.745V18.523C59.875 15.108 61.895 12.997 64.522 12.997C66.514 12.997 68.174 13.858 68.534 16.163H70.802C70.359 12.47 67.538 11.081 64.522 11.081C60.65 11.081 57.496 14.08 57.496 18.523V18.745C57.496 23.243 60.539 26.103 64.578 26.103ZM77.635 26.047C78.575 26.047 79.129 25.909 79.599 25.742V23.798C79.101 23.993 78.547 24.104 77.829 24.104C76.666 24.104 76.03 23.41 76.03 21.994V13.274H79.405V11.332H76.03V8.027H73.734V11.331H71.66V13.275H73.735V22.215C73.735 24.492 75.008 26.047 77.635 26.047V26.047ZM7.11 50.903C4.177 50.903 2.38 48.737 2.38 45.433V45.211C2.38 41.879 4.205 39.713 7.11 39.713C9.987 39.713 11.84 41.879 11.84 45.239V45.433C11.84 48.709 10.014 50.903 7.11 50.903V50.903ZM7.082 52.819C11.203 52.819 14.219 49.792 14.219 45.405V45.183C14.219 40.823 11.203 37.797 7.109 37.797C3.015 37.797 0 40.851 0 45.211V45.433C0 49.681 2.96 52.819 7.082 52.819V52.819ZM16.127 52.569H18.424V43.767C18.424 41.157 20.332 39.797 22.462 39.797C24.786 39.797 25.865 40.935 25.865 43.489V52.569H28.161V43.656C28.161 39.436 26.059 37.797 23.071 37.797C20.692 37.797 19.088 38.991 18.424 40.352V38.047H16.127V52.57V52.569ZM12.5 85.488H17.156V74.805H28.395V85.488H33.086V60.362H28.395V71.045H17.156V60.362H12.5V85.488ZM44.364 85.84C49.055 85.84 52.171 83.731 52.767 79.866H48.67C48.355 81.658 47.025 82.677 44.469 82.677C41.318 82.677 39.567 80.709 39.427 77.23H52.837V76C52.837 69.428 48.74 66.723 44.189 66.723C38.972 66.723 35.086 70.518 35.086 76.211V76.492C35.086 82.29 38.972 85.84 44.364 85.84V85.84ZM39.497 74.384C39.917 71.537 41.633 69.815 44.189 69.815C46.815 69.815 48.425 71.221 48.635 74.384H39.497ZM60.888 85.84C63.689 85.84 65.299 84.82 66.49 83.24V85.488H70.656V73.435C70.656 68.41 67.436 66.723 63.339 66.723C59.243 66.723 55.846 68.515 55.497 72.803H59.593C59.803 70.975 60.888 69.921 63.093 69.921C65.58 69.921 66.42 71.151 66.42 73.611V74.559H64.144C58.893 74.559 54.761 76.106 54.761 80.393C54.761 84.223 57.527 85.84 60.888 85.84ZM61.903 82.782C59.803 82.782 58.963 81.763 58.963 80.217C58.963 77.968 61.028 77.23 64.249 77.23H66.42V79.058C66.42 81.412 64.494 82.782 61.903 82.782V82.782ZM73.618 85.488H77.854V61.585H73.618V85.488ZM87.923 85.805C89.218 85.805 90.129 85.594 90.794 85.348V81.974C90.199 82.22 89.569 82.325 88.728 82.325C87.398 82.325 86.628 81.588 86.628 79.971V70.307H90.654V67.11H86.628V63.104H82.39V67.11H79.94V70.307H82.39V80.357C82.39 83.837 84.28 85.805 87.922 85.805H87.923ZM93.3 85.488H97.537V74.665C97.537 71.748 99.462 70.272 101.843 70.272C104.363 70.272 105.484 71.537 105.484 74.313V85.488H109.72V73.927C109.72 68.867 107.13 66.723 103.453 66.723C100.443 66.723 98.412 68.234 97.537 70.026V61.586H93.3V85.488V85.488ZM60.374 57.682H64.61V48.123C64.61 44.223 66.851 43.028 70.562 42.993V39.02C67.482 39.056 65.766 40.426 64.61 42.746V39.302H60.374V57.681V57.682ZM83.796 58.033C88.522 58.033 91.919 54.449 91.919 48.545V48.264C91.919 42.324 88.382 38.916 83.796 38.916C81.1 38.916 78.824 40.498 77.809 42.255V33.779H73.573V57.68H77.809V54.73C78.789 56.592 80.89 58.033 83.796 58.033V58.033ZM82.746 54.66C79.665 54.66 77.669 52.727 77.669 48.615V48.335C77.669 44.258 79.769 42.255 82.711 42.255C85.476 42.255 87.577 44.258 87.577 48.335V48.615C87.577 52.551 85.862 54.66 82.746 54.66ZM99.831 58.033C102.631 58.033 104.242 57.014 105.433 55.433V57.681H109.599V45.628C109.599 40.603 106.378 38.916 102.282 38.916C98.185 38.916 94.789 40.709 94.439 44.996H98.535C98.745 43.168 99.831 42.114 102.036 42.114C104.522 42.114 105.363 43.344 105.363 45.804V46.753H103.087C97.835 46.753 93.704 48.299 93.704 52.586C93.704 56.416 96.47 58.033 99.831 58.033V58.033ZM100.846 54.976C98.746 54.976 97.906 53.956 97.906 52.41C97.906 50.161 99.971 49.423 103.192 49.423H105.362V51.251C105.362 53.605 103.437 54.976 100.846 54.976ZM112.547 57.682H116.783V46.858C116.783 43.941 118.709 42.465 121.089 42.465C123.609 42.465 124.73 43.731 124.73 46.507V57.682H128.966V46.12C128.966 41.06 126.376 38.916 122.7 38.916C119.689 38.916 117.658 40.427 116.783 42.219V39.303H112.547V57.682Z" fill="#1C1C1C"/>
</g>
<path d="M168.076 19.13H170.128L174.484 32H172.936L171.676 28.292H166.366L165.124 32H163.648L168.076 19.13ZM166.798 27.05H171.262L169.03 20.426L166.798 27.05ZM176.677 22.586H178.171V32H176.677V22.586ZM177.397 20.624C177.121 20.624 176.887 20.528 176.695 20.336C176.503 20.144 176.407 19.91 176.407 19.634C176.407 19.358 176.503 19.124 176.695 18.932C176.887 18.74 177.121 18.644 177.397 18.644C177.673 18.644 177.907 18.74 178.099 18.932C178.291 19.124 178.387 19.358 178.387 19.634C178.387 19.91 178.291 20.144 178.099 20.336C177.907 20.528 177.673 20.624 177.397 20.624ZM181.229 22.586H182.723V24.278C183.023 23.75 183.401 23.318 183.857 22.982C184.325 22.634 184.979 22.448 185.819 22.424V23.828C185.351 23.852 184.925 23.912 184.541 24.008C184.157 24.104 183.827 24.266 183.551 24.494C183.287 24.722 183.083 25.028 182.939 25.412C182.795 25.784 182.723 26.258 182.723 26.834V32H181.229V22.586ZM192.868 19.13H196.522C197.134 19.13 197.71 19.202 198.25 19.346C198.802 19.478 199.282 19.7 199.69 20.012C200.098 20.312 200.422 20.702 200.662 21.182C200.902 21.65 201.022 22.22 201.022 22.892V22.964C201.022 23.648 200.902 24.23 200.662 24.71C200.422 25.19 200.098 25.586 199.69 25.898C199.282 26.198 198.802 26.42 198.25 26.564C197.71 26.696 197.134 26.762 196.522 26.762H194.434V32H192.868V19.13ZM196.63 25.52C197.554 25.52 198.256 25.304 198.736 24.872C199.216 24.428 199.456 23.792 199.456 22.964V22.892C199.456 21.98 199.204 21.338 198.7 20.966C198.196 20.582 197.506 20.39 196.63 20.39H194.434V25.52H196.63ZM206.879 30.92C207.347 30.92 207.773 30.836 208.157 30.668C208.541 30.5 208.865 30.26 209.129 29.948C209.393 29.636 209.597 29.264 209.741 28.832C209.885 28.388 209.957 27.902 209.957 27.374V27.248C209.957 26.156 209.675 25.286 209.111 24.638C208.559 23.99 207.815 23.666 206.879 23.666C205.931 23.666 205.181 23.99 204.629 24.638C204.077 25.274 203.801 26.138 203.801 27.23V27.374C203.801 28.454 204.071 29.318 204.611 29.966C205.163 30.602 205.919 30.92 206.879 30.92ZM206.861 32.162C206.189 32.162 205.571 32.042 205.007 31.802C204.443 31.562 203.957 31.232 203.549 30.812C203.141 30.38 202.823 29.87 202.595 29.282C202.367 28.694 202.253 28.058 202.253 27.374V27.23C202.253 26.522 202.367 25.874 202.595 25.286C202.835 24.698 203.159 24.194 203.567 23.774C203.975 23.342 204.461 23.012 205.025 22.784C205.601 22.544 206.219 22.424 206.879 22.424C207.551 22.424 208.169 22.544 208.733 22.784C209.297 23.012 209.783 23.336 210.191 23.756C210.599 24.176 210.917 24.68 211.145 25.268C211.385 25.856 211.505 26.504 211.505 27.212V27.356C211.505 28.064 211.385 28.712 211.145 29.3C210.917 29.888 210.593 30.398 210.173 30.83C209.765 31.25 209.279 31.58 208.715 31.82C208.151 32.048 207.533 32.162 206.861 32.162ZM213.855 18.086H215.367V32H213.855V18.086ZM218.46 18.086H219.972V32H218.46V18.086ZM226.216 32.162C225.748 32.162 225.31 32.096 224.902 31.964C224.506 31.832 224.164 31.622 223.876 31.334C223.588 31.034 223.36 30.656 223.192 30.2C223.024 29.744 222.94 29.192 222.94 28.544V22.586H224.434V28.472C224.434 29.3 224.608 29.906 224.956 30.29C225.316 30.674 225.868 30.866 226.612 30.866C226.948 30.866 227.272 30.812 227.584 30.704C227.896 30.596 228.172 30.434 228.412 30.218C228.652 30.002 228.844 29.732 228.988 29.408C229.132 29.084 229.204 28.712 229.204 28.292V22.586H230.698V32H229.204V30.506C228.988 30.95 228.622 31.34 228.106 31.676C227.602 32 226.972 32.162 226.216 32.162ZM236.579 32.126C235.715 32.126 235.073 31.898 234.653 31.442C234.245 30.986 234.041 30.386 234.041 29.642V23.846H232.691V22.586H234.041V20.444H235.535V22.586H237.731V23.846H235.535V29.498C235.535 30.41 235.925 30.866 236.705 30.866C236.945 30.866 237.155 30.848 237.335 30.812C237.515 30.776 237.689 30.728 237.857 30.668V31.928C237.701 31.988 237.527 32.036 237.335 32.072C237.143 32.108 236.891 32.126 236.579 32.126ZM240.152 22.586H241.646V32H240.152V22.586ZM240.872 20.624C240.596 20.624 240.362 20.528 240.17 20.336C239.978 20.144 239.882 19.91 239.882 19.634C239.882 19.358 239.978 19.124 240.17 18.932C240.362 18.74 240.596 18.644 240.872 18.644C241.148 18.644 241.382 18.74 241.574 18.932C241.766 19.124 241.862 19.358 241.862 19.634C241.862 19.91 241.766 20.144 241.574 20.336C241.382 20.528 241.148 20.624 240.872 20.624ZM248.627 30.92C249.095 30.92 249.521 30.836 249.905 30.668C250.289 30.5 250.613 30.26 250.877 29.948C251.141 29.636 251.345 29.264 251.489 28.832C251.633 28.388 251.705 27.902 251.705 27.374V27.248C251.705 26.156 251.423 25.286 250.859 24.638C250.307 23.99 249.563 23.666 248.627 23.666C247.679 23.666 246.929 23.99 246.377 24.638C245.825 25.274 245.549 26.138 245.549 27.23V27.374C245.549 28.454 245.819 29.318 246.359 29.966C246.911 30.602 247.667 30.92 248.627 30.92ZM248.609 32.162C247.937 32.162 247.319 32.042 246.755 31.802C246.191 31.562 245.705 31.232 245.297 30.812C244.889 30.38 244.571 29.87 244.343 29.282C244.115 28.694 244.001 28.058 244.001 27.374V27.23C244.001 26.522 244.115 25.874 244.343 25.286C244.583 24.698 244.907 24.194 245.315 23.774C245.723 23.342 246.209 23.012 246.773 22.784C247.349 22.544 247.967 22.424 248.627 22.424C249.299 22.424 249.917 22.544 250.481 22.784C251.045 23.012 251.531 23.336 251.939 23.756C252.347 24.176 252.665 24.68 252.893 25.268C253.133 25.856 253.253 26.504 253.253 27.212V27.356C253.253 28.064 253.133 28.712 252.893 29.3C252.665 29.888 252.341 30.398 251.921 30.83C251.513 31.25 251.027 31.58 250.463 31.82C249.899 32.048 249.281 32.162 248.609 32.162ZM255.567 22.586H257.061V24.08C257.277 23.636 257.637 23.252 258.141 22.928C258.657 22.592 259.305 22.424 260.085 22.424C260.577 22.424 261.021 22.496 261.417 22.64C261.825 22.772 262.173 22.994 262.461 23.306C262.761 23.606 262.989 23.996 263.145 24.476C263.313 24.956 263.397 25.538 263.397 26.222V32H261.903V26.114C261.903 25.286 261.723 24.68 261.363 24.296C261.003 23.912 260.445 23.72 259.689 23.72C259.341 23.72 259.005 23.774 258.681 23.882C258.369 23.99 258.093 24.152 257.853 24.368C257.613 24.584 257.421 24.854 257.277 25.178C257.133 25.502 257.061 25.874 257.061 26.294V32H255.567V22.586ZM164.62 39.13H172.126V40.408H166.186V44.782H170.974V46.06H166.186V50.722H172.45V52H164.62V39.13ZM177.153 47.158L174.003 42.586H175.749L178.053 46.006L180.339 42.586H181.959L178.845 47.05L182.283 52H180.519L177.981 48.202L175.389 52H173.787L177.153 47.158ZM184.305 42.586H185.799V44.17C185.931 43.942 186.105 43.726 186.321 43.522C186.549 43.306 186.801 43.12 187.077 42.964C187.365 42.796 187.671 42.664 187.995 42.568C188.319 42.472 188.649 42.424 188.985 42.424C189.597 42.424 190.167 42.532 190.695 42.748C191.223 42.964 191.673 43.276 192.045 43.684C192.429 44.092 192.729 44.59 192.945 45.178C193.161 45.766 193.269 46.426 193.269 47.158V47.302C193.269 48.022 193.167 48.682 192.963 49.282C192.759 49.87 192.471 50.38 192.099 50.812C191.727 51.244 191.277 51.58 190.749 51.82C190.221 52.048 189.633 52.162 188.985 52.162C188.205 52.162 187.545 51.994 187.005 51.658C186.477 51.322 186.075 50.92 185.799 50.452V55.276H184.305V42.586ZM188.841 50.92C189.777 50.92 190.491 50.62 190.983 50.02C191.475 49.408 191.721 48.526 191.721 47.374V47.23C191.721 46.63 191.643 46.108 191.487 45.664C191.331 45.22 191.121 44.854 190.857 44.566C190.605 44.266 190.299 44.044 189.939 43.9C189.591 43.744 189.219 43.666 188.823 43.666C188.391 43.666 187.983 43.738 187.599 43.882C187.227 44.026 186.903 44.248 186.627 44.548C186.351 44.836 186.135 45.208 185.979 45.664C185.823 46.108 185.745 46.63 185.745 47.23V47.374C185.745 48.574 186.033 49.468 186.609 50.056C187.185 50.632 187.929 50.92 188.841 50.92ZM199.514 50.92C199.982 50.92 200.408 50.836 200.792 50.668C201.176 50.5 201.5 50.26 201.764 49.948C202.028 49.636 202.232 49.264 202.376 48.832C202.52 48.388 202.592 47.902 202.592 47.374V47.248C202.592 46.156 202.31 45.286 201.746 44.638C201.194 43.99 200.45 43.666 199.514 43.666C198.566 43.666 197.816 43.99 197.264 44.638C196.712 45.274 196.436 46.138 196.436 47.23V47.374C196.436 48.454 196.706 49.318 197.246 49.966C197.798 50.602 198.554 50.92 199.514 50.92ZM199.496 52.162C198.824 52.162 198.206 52.042 197.642 51.802C197.078 51.562 196.592 51.232 196.184 50.812C195.776 50.38 195.458 49.87 195.23 49.282C195.002 48.694 194.888 48.058 194.888 47.374V47.23C194.888 46.522 195.002 45.874 195.23 45.286C195.47 44.698 195.794 44.194 196.202 43.774C196.61 43.342 197.096 43.012 197.66 42.784C198.236 42.544 198.854 42.424 199.514 42.424C200.186 42.424 200.804 42.544 201.368 42.784C201.932 43.012 202.418 43.336 202.826 43.756C203.234 44.176 203.552 44.68 203.78 45.268C204.02 45.856 204.14 46.504 204.14 47.212V47.356C204.14 48.064 204.02 48.712 203.78 49.3C203.552 49.888 203.228 50.398 202.808 50.83C202.4 51.25 201.914 51.58 201.35 51.82C200.786 52.048 200.168 52.162 199.496 52.162ZM209.369 52.162C208.241 52.162 207.353 51.898 206.705 51.37C206.069 50.83 205.727 50.074 205.679 49.102H207.137C207.197 49.666 207.389 50.11 207.713 50.434C208.049 50.758 208.595 50.92 209.351 50.92C210.071 50.92 210.593 50.8 210.917 50.56C211.241 50.308 211.403 49.93 211.403 49.426C211.403 48.922 211.217 48.568 210.845 48.364C210.485 48.148 209.939 47.974 209.207 47.842C208.595 47.734 208.079 47.608 207.659 47.464C207.239 47.308 206.903 47.122 206.651 46.906C206.399 46.69 206.213 46.432 206.093 46.132C205.985 45.832 205.931 45.478 205.931 45.07C205.931 44.638 206.027 44.26 206.219 43.936C206.411 43.6 206.657 43.324 206.957 43.108C207.269 42.88 207.611 42.712 207.983 42.604C208.367 42.484 208.745 42.424 209.117 42.424C209.537 42.424 209.939 42.472 210.323 42.568C210.707 42.652 211.049 42.802 211.349 43.018C211.661 43.234 211.919 43.516 212.123 43.864C212.327 44.212 212.459 44.638 212.519 45.142H211.079C210.971 44.626 210.761 44.254 210.449 44.026C210.149 43.786 209.699 43.666 209.099 43.666C208.559 43.666 208.127 43.792 207.803 44.044C207.479 44.284 207.317 44.608 207.317 45.016C207.317 45.232 207.347 45.418 207.407 45.574C207.479 45.718 207.599 45.85 207.767 45.97C207.935 46.078 208.157 46.18 208.433 46.276C208.721 46.36 209.081 46.438 209.513 46.51C210.005 46.594 210.449 46.696 210.845 46.816C211.253 46.936 211.601 47.098 211.889 47.302C212.189 47.494 212.417 47.752 212.573 48.076C212.741 48.388 212.825 48.796 212.825 49.3C212.825 50.164 212.537 50.86 211.961 51.388C211.385 51.904 210.521 52.162 209.369 52.162ZM218.288 52.162C217.82 52.162 217.382 52.096 216.974 51.964C216.578 51.832 216.236 51.622 215.948 51.334C215.66 51.034 215.432 50.656 215.264 50.2C215.096 49.744 215.012 49.192 215.012 48.544V42.586H216.506V48.472C216.506 49.3 216.68 49.906 217.028 50.29C217.388 50.674 217.94 50.866 218.684 50.866C219.02 50.866 219.344 50.812 219.656 50.704C219.968 50.596 220.244 50.434 220.484 50.218C220.724 50.002 220.916 49.732 221.06 49.408C221.204 49.084 221.276 48.712 221.276 48.292V42.586H222.77V52H221.276V50.506C221.06 50.95 220.694 51.34 220.178 51.676C219.674 52 219.044 52.162 218.288 52.162ZM225.789 42.586H227.283V44.278C227.583 43.75 227.961 43.318 228.417 42.982C228.885 42.634 229.539 42.448 230.379 42.424V43.828C229.911 43.852 229.485 43.912 229.101 44.008C228.717 44.104 228.387 44.266 228.111 44.494C227.847 44.722 227.643 45.028 227.499 45.412C227.355 45.784 227.283 46.258 227.283 46.834V52H225.789V42.586ZM236.145 52.162C235.485 52.162 234.873 52.048 234.309 51.82C233.757 51.592 233.277 51.274 232.869 50.866C232.461 50.446 232.143 49.942 231.915 49.354C231.699 48.766 231.591 48.112 231.591 47.392V47.248C231.591 46.54 231.699 45.892 231.915 45.304C232.131 44.704 232.431 44.194 232.815 43.774C233.211 43.342 233.679 43.012 234.219 42.784C234.759 42.544 235.353 42.424 236.001 42.424C236.541 42.424 237.063 42.514 237.567 42.694C238.083 42.862 238.539 43.132 238.935 43.504C239.331 43.876 239.643 44.362 239.871 44.962C240.111 45.55 240.231 46.264 240.231 47.104V47.59H233.139C233.175 48.67 233.445 49.498 233.949 50.074C234.453 50.638 235.191 50.92 236.163 50.92C237.639 50.92 238.473 50.374 238.665 49.282H240.159C239.991 50.23 239.547 50.95 238.827 51.442C238.107 51.922 237.213 52.162 236.145 52.162ZM238.701 46.384C238.629 45.412 238.353 44.716 237.873 44.296C237.405 43.876 236.781 43.666 236.001 43.666C235.233 43.666 234.603 43.912 234.111 44.404C233.631 44.884 233.325 45.544 233.193 46.384H238.701ZM164.62 59.13H166.798L170.776 69.156L174.628 59.13H176.788V72H175.222V61.164L170.956 72H170.47L166.06 61.164V72H164.62V59.13ZM183.852 70.92C184.32 70.92 184.746 70.836 185.13 70.668C185.514 70.5 185.838 70.26 186.102 69.948C186.366 69.636 186.57 69.264 186.714 68.832C186.858 68.388 186.93 67.902 186.93 67.374V67.248C186.93 66.156 186.648 65.286 186.084 64.638C185.532 63.99 184.788 63.666 183.852 63.666C182.904 63.666 182.154 63.99 181.602 64.638C181.05 65.274 180.774 66.138 180.774 67.23V67.374C180.774 68.454 181.044 69.318 181.584 69.966C182.136 70.602 182.892 70.92 183.852 70.92ZM183.834 72.162C183.162 72.162 182.544 72.042 181.98 71.802C181.416 71.562 180.93 71.232 180.522 70.812C180.114 70.38 179.796 69.87 179.568 69.282C179.34 68.694 179.226 68.058 179.226 67.374V67.23C179.226 66.522 179.34 65.874 179.568 65.286C179.808 64.698 180.132 64.194 180.54 63.774C180.948 63.342 181.434 63.012 181.998 62.784C182.574 62.544 183.192 62.424 183.852 62.424C184.524 62.424 185.142 62.544 185.706 62.784C186.27 63.012 186.756 63.336 187.164 63.756C187.572 64.176 187.89 64.68 188.118 65.268C188.358 65.856 188.478 66.504 188.478 67.212V67.356C188.478 68.064 188.358 68.712 188.118 69.3C187.89 69.888 187.566 70.398 187.146 70.83C186.738 71.25 186.252 71.58 185.688 71.82C185.124 72.048 184.506 72.162 183.834 72.162ZM190.791 62.586H192.285V64.08C192.501 63.636 192.861 63.252 193.365 62.928C193.881 62.592 194.529 62.424 195.309 62.424C195.801 62.424 196.245 62.496 196.641 62.64C197.049 62.772 197.397 62.994 197.685 63.306C197.985 63.606 198.213 63.996 198.369 64.476C198.537 64.956 198.621 65.538 198.621 66.222V72H197.127V66.114C197.127 65.286 196.947 64.68 196.587 64.296C196.227 63.912 195.669 63.72 194.913 63.72C194.565 63.72 194.229 63.774 193.905 63.882C193.593 63.99 193.317 64.152 193.077 64.368C192.837 64.584 192.645 64.854 192.501 65.178C192.357 65.502 192.285 65.874 192.285 66.294V72H190.791V62.586ZM201.585 62.586H203.079V72H201.585V62.586ZM202.305 60.624C202.029 60.624 201.795 60.528 201.603 60.336C201.411 60.144 201.315 59.91 201.315 59.634C201.315 59.358 201.411 59.124 201.603 58.932C201.795 58.74 202.029 58.644 202.305 58.644C202.581 58.644 202.815 58.74 203.007 58.932C203.199 59.124 203.295 59.358 203.295 59.634C203.295 59.91 203.199 60.144 203.007 60.336C202.815 60.528 202.581 60.624 202.305 60.624ZM208.999 72.126C208.135 72.126 207.493 71.898 207.073 71.442C206.665 70.986 206.461 70.386 206.461 69.642V63.846H205.111V62.586H206.461V60.444H207.955V62.586H210.151V63.846H207.955V69.498C207.955 70.41 208.345 70.866 209.125 70.866C209.365 70.866 209.575 70.848 209.755 70.812C209.935 70.776 210.109 70.728 210.277 70.668V71.928C210.121 71.988 209.947 72.036 209.755 72.072C209.563 72.108 209.311 72.126 208.999 72.126ZM216.459 70.92C216.927 70.92 217.353 70.836 217.737 70.668C218.121 70.5 218.445 70.26 218.709 69.948C218.973 69.636 219.177 69.264 219.321 68.832C219.465 68.388 219.537 67.902 219.537 67.374V67.248C219.537 66.156 219.255 65.286 218.691 64.638C218.139 63.99 217.395 63.666 216.459 63.666C215.511 63.666 214.761 63.99 214.209 64.638C213.657 65.274 213.381 66.138 213.381 67.23V67.374C213.381 68.454 213.651 69.318 214.191 69.966C214.743 70.602 215.499 70.92 216.459 70.92ZM216.441 72.162C215.769 72.162 215.151 72.042 214.587 71.802C214.023 71.562 213.537 71.232 213.129 70.812C212.721 70.38 212.403 69.87 212.175 69.282C211.947 68.694 211.833 68.058 211.833 67.374V67.23C211.833 66.522 211.947 65.874 212.175 65.286C212.415 64.698 212.739 64.194 213.147 63.774C213.555 63.342 214.041 63.012 214.605 62.784C215.181 62.544 215.799 62.424 216.459 62.424C217.131 62.424 217.749 62.544 218.313 62.784C218.877 63.012 219.363 63.336 219.771 63.756C220.179 64.176 220.497 64.68 220.725 65.268C220.965 65.856 221.085 66.504 221.085 67.212V67.356C221.085 68.064 220.965 68.712 220.725 69.3C220.497 69.888 220.173 70.398 219.753 70.83C219.345 71.25 218.859 71.58 218.295 71.82C217.731 72.048 217.113 72.162 216.441 72.162ZM223.399 62.586H224.893V64.278C225.193 63.75 225.571 63.318 226.027 62.982C226.495 62.634 227.149 62.448 227.989 62.424V63.828C227.521 63.852 227.095 63.912 226.711 64.008C226.327 64.104 225.997 64.266 225.721 64.494C225.457 64.722 225.253 65.028 225.109 65.412C224.965 65.784 224.893 66.258 224.893 66.834V72H223.399V62.586Z" fill="#1C1C1C"/>
<line x1="146.5" y1="86" x2="146.5" y2="6" stroke="#63666A"/>
</svg>
